<svg xmlns="http://www.w3.org/2000/svg" width="1000" height="460" viewBox="0 0 1000 460">
<rect width="100%" height="100%" fill="white"/>
<text x="70" y="30" font-family="Arial" font-size="20" font-weight="700">Variacion de TRM por escenario (%)</text>
<line x1="70" y1="226.4" x2="970" y2="226.4" stroke="#94a3b8"/>
<rect x="79.7" y="226.4" width="49.8" height="0.0" fill="#0f766e"/><text transform="translate(104.6,365) rotate(55)" font-family="Arial" font-size="11" fill="#334155">Base</text><rect x="148.9" y="226.4" width="49.8" height="7.7" fill="#0f766e"/><text transform="translate(173.8,365) rotate(55)" font-family="Arial" font-size="11" fill="#334155">Expansion fiscal</text><rect x="218.2" y="218.7" width="49.8" height="7.7" fill="#0f766e"/><text transform="translate(243.1,365) rotate(55)" font-family="Arial" font-size="11" fill="#334155">Contraccion fiscal</text><rect x="287.4" y="226.4" width="49.8" height="93.6" fill="#0f766e"/><text transform="translate(312.3,365) rotate(55)" font-family="Arial" font-size="11" fill="#334155">Aumento tasa domes</text><rect x="356.6" y="132.8" width="49.8" height="93.6" fill="#0f766e"/><text transform="translate(381.5,365) rotate(55)" font-family="Arial" font-size="11" fill="#334155">Reduccion tasa dom</text><rect x="425.8" y="131.4" width="49.8" height="95.0" fill="#0f766e"/><text transform="translate(450.8,365) rotate(55)" font-family="Arial" font-size="11" fill="#334155">Aumento tasa Fed</text><rect x="495.1" y="83.9" width="49.8" height="142.5" fill="#0f766e"/><text transform="translate(520.0,365) rotate(55)" font-family="Arial" font-size="11" fill="#334155">Aumento prima de r</text><rect x="564.3" y="190.9" width="49.8" height="35.4" fill="#0f766e"/><text transform="translate(589.2,365) rotate(55)" font-family="Arial" font-size="11" fill="#334155">Caida precio del p</text><rect x="633.5" y="226.4" width="49.8" height="35.4" fill="#0f766e"/><text transform="translate(658.5,365) rotate(55)" font-family="Arial" font-size="11" fill="#334155">Aumento precio del</text><rect x="702.8" y="226.4" width="49.8" height="27.1" fill="#0f766e"/><text transform="translate(727.7,365) rotate(55)" font-family="Arial" font-size="11" fill="#334155">Demanda externa po</text><rect x="772.0" y="50.0" width="49.8" height="176.4" fill="#0f766e"/><text transform="translate(796.9,365) rotate(55)" font-family="Arial" font-size="11" fill="#334155">Salida subita de c</text><rect x="841.2" y="226.4" width="49.8" height="15.0" fill="#0f766e"/><text transform="translate(866.2,365) rotate(55)" font-family="Arial" font-size="11" fill="#334155">Mejora terminos de</text><rect x="910.5" y="184.4" width="49.8" height="42.0" fill="#0f766e"/><text transform="translate(935.4,365) rotate(55)" font-family="Arial" font-size="11" fill="#334155">Deterioro cuenta c</text>
<text x="12" y="58" font-family="Arial" font-size="12" fill="#475569">5.14</text>
<text x="12" y="320" font-family="Arial" font-size="12" fill="#475569">-2.73</text>
</svg>